<mxfile host="65bd71144e">
    <diagram id="o3BLEdoaR9Go25Xo469k" name="Page-1">
        <mxGraphModel dx="1389" dy="788" grid="1" gridSize="10" guides="1" tooltips="1" connect="1" arrows="1" fold="1" page="1" pageScale="1" pageWidth="850" pageHeight="1100" math="0" shadow="0">
            <root>
                <mxCell id="0"/>
                <mxCell id="1" parent="0"/>
                <object label="&lt;table border=&quot;1&quot; width=&quot;100%&quot; cellpadding=&quot;4&quot; style=&quot;width: 100% ; height: 100% ; border-collapse: collapse&quot;&gt;     &lt;tbody&gt;         &lt;tr style=&quot;background-color: #a7c942 ; color: #ffffff ; border: 1px solid #98bf21&quot;&gt;             &lt;th align=&quot;left&quot;&gt;项目相关方&lt;/th&gt;             &lt;th align=&quot;left&quot;&gt;说明&lt;/th&gt;             &lt;th align=&quot;left&quot;&gt;职责&lt;/th&gt;         &lt;/tr&gt;         &lt;tr style=&quot;border: 1px solid #98bf21&quot;&gt;             &lt;td&gt;项目发起人&lt;/td&gt;             &lt;td&gt;负责为项目提供财务资源，&lt;br&gt;可由客户或管理层扮演&lt;/td&gt;             &lt;td&gt;为项目提供资金提出需求，验收产品确定项目目标的优先级别&lt;/td&gt;         &lt;/tr&gt;         &lt;tr style=&quot;background-color: #eaf2d3 ; border: 1px solid #98bf21&quot;&gt;             &lt;td&gt;管理层（或PMO）&lt;br&gt;&lt;/td&gt;             &lt;td&gt;项目经理上司&lt;br&gt;（PMO参与项目的指导和管理）&lt;/td&gt;             &lt;td&gt;保护项目的存在，委派项目经理帮助协调、&lt;br&gt;解决冲突安排各项目的优先级别&lt;br&gt;&lt;/td&gt;         &lt;/tr&gt;         &lt;tr style=&quot;border: 1px solid #98bf21&quot;&gt;             &lt;td&gt;职能经理&lt;/td&gt;             &lt;td&gt;职能部门的管理者&lt;/td&gt;             &lt;td&gt;为项目分配资源，&lt;br&gt;给项目提供技术支持参与确定项目目标批准项目计划&lt;/td&gt;         &lt;/tr&gt;         &lt;tr style=&quot;background-color: #eaf2d3 ; border: 1px solid #98bf21&quot;&gt;             &lt;td&gt;项目经理&lt;/td&gt;             &lt;td&gt;负责管理项目，对项目结果负责扮演整合者，&lt;br&gt;协调者，沟通者和领导者&lt;/td&gt;             &lt;td&gt;沟通协调，理解需求并均衡相互冲突的需求，&lt;br&gt;目标指定项目管理计划并监控实施，&lt;br&gt;评估趋势管理项目团队和项目相关方&lt;/td&gt;         &lt;/tr&gt;         &lt;tr style=&quot;border: 1px solid #98bf21&quot;&gt;             &lt;td&gt;客户&lt;/td&gt;             &lt;td&gt;接受项目最终产品，&lt;br&gt;服务或者结果的个人或者团队&lt;/td&gt;             &lt;td&gt;提出清晰明确的需求，验收项目产品，接受项目成果，&lt;br&gt;积极参与项目工作，核准最终产品需求有关的变更请求&lt;/td&gt;         &lt;/tr&gt;         &lt;tr style=&quot;background-color: #eaf2d3 ; border: 1px solid #98bf21&quot;&gt;             &lt;td&gt;项目团队&lt;/td&gt;             &lt;td&gt;执行项目计划中定义的工作任务，&lt;br&gt;完成可交付成果&lt;/td&gt;             &lt;td&gt;完成任务，协助项目经理工作贡献自己的知识，&lt;br&gt;参与指定项目实施策略和解决方案&lt;/td&gt;         &lt;/tr&gt;     &lt;/tbody&gt; &lt;/table&gt;" row="6" id="2">
                    <mxCell style="text;html=1;strokeColor=#c0c0c0;fillColor=#ffffff;overflow=fill;rounded=0;verticalAlign=bottom;direction=east;container=0;" parent="1" vertex="1">
                        <mxGeometry x="20" y="30" width="810" height="310" as="geometry"/>
                    </mxCell>
                </object>
            </root>
        </mxGraphModel>
    </diagram>
</mxfile>